<svg width="677" height="557" viewBox="0 0 677 557" fill="none" xmlns="http://www.w3.org/2000/svg">
<path fill-rule="evenodd" clip-rule="evenodd" d="M329.181 1.72621C391.602 11.1255 432.315 64.3849 474.084 108.361C507.342 143.376 517.174 189.07 544.39 228.306C585.683 287.836 691.938 328.064 674.223 396.891C657.044 463.631 544.954 452.965 478.675 483.62C427.034 507.505 386.807 559.57 329.181 556.478C272.137 553.418 236.375 501.293 191.765 468.226C149.792 437.113 105.445 411.033 76.4222 369.122C39.0965 315.221 -11.5864 257.439 2.36887 194.723C16.5012 131.212 86.4196 93.7407 145.457 58.8763C201.295 25.9016 263.815 -8.1165 329.181 1.72621Z" fill="#3A003A" fill-opacity="0.7"/>
</svg>
